<mxfile host="app.diagrams.net" modified="2022-09-30T15:03:37.917Z" agent="5.0 (Windows NT 10.0; Win64; x64) AppleWebKit/537.36 (KHTML, like Gecko) Chrome/105.0.0.0 Safari/537.36" etag="rEXWiFtL3_60ZUwwGnDS" version="20.3.5" type="github">
  <diagram id="C5RBs43oDa-KdzZeNtuy" name="Page-1">
    <mxGraphModel dx="652" dy="357" grid="0" gridSize="10" guides="1" tooltips="1" connect="1" arrows="1" fold="1" page="1" pageScale="1" pageWidth="827" pageHeight="1169" math="0" shadow="0">
      <root>
        <mxCell id="WIyWlLk6GJQsqaUBKTNV-0" />
        <mxCell id="WIyWlLk6GJQsqaUBKTNV-1" parent="WIyWlLk6GJQsqaUBKTNV-0" />
        <mxCell id="tc51eVzZ6Psj-sciTMsl-4" value="" style="edgeStyle=orthogonalEdgeStyle;rounded=0;orthogonalLoop=1;jettySize=auto;html=1;" edge="1" parent="WIyWlLk6GJQsqaUBKTNV-1" target="WIyWlLk6GJQsqaUBKTNV-11">
          <mxGeometry relative="1" as="geometry">
            <mxPoint x="486" y="97" as="sourcePoint" />
          </mxGeometry>
        </mxCell>
        <mxCell id="WIyWlLk6GJQsqaUBKTNV-11" value="&lt;b&gt;USDi Ticket&lt;/b&gt;" style="rounded=1;whiteSpace=wrap;html=1;fontSize=12;glass=0;strokeWidth=1;shadow=0;fillColor=#f5f5f5;fontColor=#333333;strokeColor=#666666;" parent="WIyWlLk6GJQsqaUBKTNV-1" vertex="1">
          <mxGeometry x="596" y="77" width="120" height="40" as="geometry" />
        </mxCell>
        <mxCell id="tc51eVzZ6Psj-sciTMsl-1" value="" style="endArrow=classic;html=1;rounded=0;" edge="1" parent="WIyWlLk6GJQsqaUBKTNV-1">
          <mxGeometry width="50" height="50" relative="1" as="geometry">
            <mxPoint x="152" y="97" as="sourcePoint" />
            <mxPoint x="387" y="97" as="targetPoint" />
          </mxGeometry>
        </mxCell>
        <mxCell id="tc51eVzZ6Psj-sciTMsl-2" value="" style="endArrow=classic;html=1;rounded=0;entryX=0.5;entryY=1;entryDx=0;entryDy=0;exitX=0.5;exitY=1;exitDx=0;exitDy=0;edgeStyle=orthogonalEdgeStyle;" edge="1" parent="WIyWlLk6GJQsqaUBKTNV-1" source="WIyWlLk6GJQsqaUBKTNV-11">
          <mxGeometry width="50" height="50" relative="1" as="geometry">
            <mxPoint x="377" y="285" as="sourcePoint" />
            <mxPoint x="120" y="117" as="targetPoint" />
            <Array as="points">
              <mxPoint x="615" y="271" />
              <mxPoint x="113" y="271" />
            </Array>
          </mxGeometry>
        </mxCell>
        <mxCell id="tc51eVzZ6Psj-sciTMsl-5" value="&lt;b&gt;Deposit&lt;/b&gt;" style="text;html=1;align=center;verticalAlign=middle;resizable=0;points=[];autosize=1;strokeColor=none;fillColor=none;" vertex="1" parent="WIyWlLk6GJQsqaUBKTNV-1">
          <mxGeometry x="238" y="71" width="62" height="26" as="geometry" />
        </mxCell>
        <mxCell id="tc51eVzZ6Psj-sciTMsl-6" value="100 USDT (Chainlink: 1.01 USD)&lt;br&gt;100 DAI (Chainlink: 0.99 USD)&lt;br&gt;100 USDC (Chainlink 1.00 USD)" style="text;html=1;align=center;verticalAlign=middle;resizable=0;points=[];autosize=1;strokeColor=none;fillColor=none;" vertex="1" parent="WIyWlLk6GJQsqaUBKTNV-1">
          <mxGeometry x="161" y="100" width="193" height="55" as="geometry" />
        </mxCell>
        <mxCell id="tc51eVzZ6Psj-sciTMsl-7" value="&lt;b&gt;Mint&lt;/b&gt;" style="text;html=1;align=center;verticalAlign=middle;resizable=0;points=[];autosize=1;strokeColor=none;fillColor=none;" vertex="1" parent="WIyWlLk6GJQsqaUBKTNV-1">
          <mxGeometry x="519" y="71" width="43" height="26" as="geometry" />
        </mxCell>
        <mxCell id="tc51eVzZ6Psj-sciTMsl-8" value="100 USDT = 101 USDi Ticket (Chainlink: 1.01 USD)&lt;br&gt;100 DAI = 99 USDi Ticket (Chainlink: 0.99 USD)&lt;br&gt;100 USDC = 100 USDi Ticket (Chainlink 1.00 USD)" style="text;html=1;align=center;verticalAlign=middle;resizable=0;points=[];autosize=1;strokeColor=none;fillColor=none;" vertex="1" parent="WIyWlLk6GJQsqaUBKTNV-1">
          <mxGeometry x="246" y="210" width="293" height="55" as="geometry" />
        </mxCell>
        <mxCell id="tc51eVzZ6Psj-sciTMsl-9" value="300 &lt;br&gt;USDi Ticket" style="text;html=1;align=center;verticalAlign=middle;resizable=0;points=[];autosize=1;strokeColor=none;fillColor=none;" vertex="1" parent="WIyWlLk6GJQsqaUBKTNV-1">
          <mxGeometry x="39" y="172" width="81" height="41" as="geometry" />
        </mxCell>
        <mxCell id="tc51eVzZ6Psj-sciTMsl-10" value="&lt;b&gt;USDi Ticket&lt;/b&gt;" style="rounded=1;whiteSpace=wrap;html=1;fontSize=12;glass=0;strokeWidth=1;shadow=0;fillColor=#f5f5f5;fontColor=#333333;strokeColor=#666666;" vertex="1" parent="WIyWlLk6GJQsqaUBKTNV-1">
          <mxGeometry x="60" y="330" width="120" height="40" as="geometry" />
        </mxCell>
        <mxCell id="tc51eVzZ6Psj-sciTMsl-12" value="&lt;b&gt;USDi&lt;/b&gt;" style="rounded=1;whiteSpace=wrap;html=1;fontSize=12;glass=0;strokeWidth=1;shadow=0;fillColor=#f5f5f5;fontColor=#333333;strokeColor=#666666;" vertex="1" parent="WIyWlLk6GJQsqaUBKTNV-1">
          <mxGeometry x="322" y="526.5" width="120" height="40" as="geometry" />
        </mxCell>
        <mxCell id="tc51eVzZ6Psj-sciTMsl-14" value="&lt;b&gt;Strategy&lt;/b&gt;" style="rounded=1;whiteSpace=wrap;html=1;fontSize=12;glass=0;strokeWidth=1;shadow=0;fillColor=#fff2cc;strokeColor=#d6b656;" vertex="1" parent="WIyWlLk6GJQsqaUBKTNV-1">
          <mxGeometry x="63.5" y="666" width="120" height="40" as="geometry" />
        </mxCell>
        <mxCell id="tc51eVzZ6Psj-sciTMsl-15" value="" style="endArrow=classic;html=1;rounded=0;entryX=0.5;entryY=1;entryDx=0;entryDy=0;" edge="1" parent="WIyWlLk6GJQsqaUBKTNV-1" target="tc51eVzZ6Psj-sciTMsl-10">
          <mxGeometry width="50" height="50" relative="1" as="geometry">
            <mxPoint x="120" y="474" as="sourcePoint" />
            <mxPoint x="170" y="424" as="targetPoint" />
          </mxGeometry>
        </mxCell>
        <mxCell id="tc51eVzZ6Psj-sciTMsl-16" value="&lt;b&gt;Burn&amp;nbsp;&lt;br&gt;&lt;/b&gt;300&amp;nbsp;&lt;br&gt;USDi Ticket" style="text;html=1;align=center;verticalAlign=middle;resizable=0;points=[];autosize=1;strokeColor=none;fillColor=none;" vertex="1" parent="WIyWlLk6GJQsqaUBKTNV-1">
          <mxGeometry x="117" y="393" width="81" height="55" as="geometry" />
        </mxCell>
        <mxCell id="tc51eVzZ6Psj-sciTMsl-17" value="" style="shape=image;html=1;verticalAlign=top;verticalLabelPosition=bottom;labelBackgroundColor=#ffffff;imageAspect=0;aspect=fixed;image=https://cdn3.iconfinder.com/data/icons/finance-152/64/1-128.png" vertex="1" parent="WIyWlLk6GJQsqaUBKTNV-1">
          <mxGeometry x="73.5" y="501" width="91" height="91" as="geometry" />
        </mxCell>
        <mxCell id="tc51eVzZ6Psj-sciTMsl-18" value="&lt;b&gt;BoC&#39;s vault&lt;/b&gt;" style="text;html=1;align=center;verticalAlign=middle;resizable=0;points=[];autosize=1;strokeColor=none;fillColor=none;" vertex="1" parent="WIyWlLk6GJQsqaUBKTNV-1">
          <mxGeometry x="77" y="475" width="84" height="26" as="geometry" />
        </mxCell>
        <mxCell id="tc51eVzZ6Psj-sciTMsl-19" value="" style="html=1;verticalLabelPosition=bottom;align=center;labelBackgroundColor=#ffffff;verticalAlign=top;strokeWidth=2;strokeColor=#0080F0;shadow=0;dashed=0;shape=mxgraph.ios7.icons.user;" vertex="1" parent="WIyWlLk6GJQsqaUBKTNV-1">
          <mxGeometry x="594" y="520.5" width="47" height="52" as="geometry" />
        </mxCell>
        <mxCell id="tc51eVzZ6Psj-sciTMsl-20" value="" style="html=1;verticalLabelPosition=bottom;align=center;labelBackgroundColor=#ffffff;verticalAlign=top;strokeWidth=2;strokeColor=#0080F0;shadow=0;dashed=0;shape=mxgraph.ios7.icons.user;" vertex="1" parent="WIyWlLk6GJQsqaUBKTNV-1">
          <mxGeometry x="98" y="62" width="51" height="51" as="geometry" />
        </mxCell>
        <mxCell id="tc51eVzZ6Psj-sciTMsl-21" value="" style="shape=image;html=1;verticalAlign=top;verticalLabelPosition=bottom;labelBackgroundColor=#ffffff;imageAspect=0;aspect=fixed;image=https://cdn3.iconfinder.com/data/icons/finance-152/64/1-128.png" vertex="1" parent="WIyWlLk6GJQsqaUBKTNV-1">
          <mxGeometry x="392" y="59" width="91" height="91" as="geometry" />
        </mxCell>
        <mxCell id="tc51eVzZ6Psj-sciTMsl-22" value="&lt;b style=&quot;&quot;&gt;BoC&#39;s vault&lt;/b&gt;" style="text;html=1;align=center;verticalAlign=middle;resizable=0;points=[];autosize=1;strokeColor=none;fillColor=none;" vertex="1" parent="WIyWlLk6GJQsqaUBKTNV-1">
          <mxGeometry x="395.5" y="36" width="84" height="26" as="geometry" />
        </mxCell>
        <mxCell id="tc51eVzZ6Psj-sciTMsl-23" value="&lt;b&gt;User&lt;/b&gt;" style="text;html=1;align=center;verticalAlign=middle;resizable=0;points=[];autosize=1;strokeColor=none;fillColor=none;" vertex="1" parent="WIyWlLk6GJQsqaUBKTNV-1">
          <mxGeometry x="97.5" y="33" width="45" height="26" as="geometry" />
        </mxCell>
        <mxCell id="tc51eVzZ6Psj-sciTMsl-25" value="&lt;b&gt;User&lt;/b&gt;" style="text;html=1;align=center;verticalAlign=middle;resizable=0;points=[];autosize=1;strokeColor=none;fillColor=none;" vertex="1" parent="WIyWlLk6GJQsqaUBKTNV-1">
          <mxGeometry x="595" y="488" width="45" height="26" as="geometry" />
        </mxCell>
        <mxCell id="tc51eVzZ6Psj-sciTMsl-26" value="" style="endArrow=classic;html=1;rounded=0;entryX=0.457;entryY=0.008;entryDx=0;entryDy=0;entryPerimeter=0;" edge="1" parent="WIyWlLk6GJQsqaUBKTNV-1" target="tc51eVzZ6Psj-sciTMsl-14">
          <mxGeometry width="50" height="50" relative="1" as="geometry">
            <mxPoint x="118" y="592" as="sourcePoint" />
            <mxPoint x="168" y="542" as="targetPoint" />
          </mxGeometry>
        </mxCell>
        <mxCell id="tc51eVzZ6Psj-sciTMsl-27" value="doHardWork&lt;br&gt;(exchange loss ~1 USD)" style="text;html=1;align=center;verticalAlign=middle;resizable=0;points=[];autosize=1;strokeColor=none;fillColor=none;" vertex="1" parent="WIyWlLk6GJQsqaUBKTNV-1">
          <mxGeometry x="111" y="601" width="148" height="41" as="geometry" />
        </mxCell>
        <mxCell id="tc51eVzZ6Psj-sciTMsl-28" value="" style="endArrow=classic;html=1;rounded=0;entryX=0;entryY=0.5;entryDx=0;entryDy=0;exitX=0.995;exitY=0.5;exitDx=0;exitDy=0;exitPerimeter=0;" edge="1" parent="WIyWlLk6GJQsqaUBKTNV-1" source="tc51eVzZ6Psj-sciTMsl-17" target="tc51eVzZ6Psj-sciTMsl-12">
          <mxGeometry width="50" height="50" relative="1" as="geometry">
            <mxPoint x="168" y="542" as="sourcePoint" />
            <mxPoint x="218" y="492" as="targetPoint" />
          </mxGeometry>
        </mxCell>
        <mxCell id="tc51eVzZ6Psj-sciTMsl-29" value="" style="endArrow=classic;html=1;rounded=0;entryX=0;entryY=0.55;entryDx=0;entryDy=0;entryPerimeter=0;" edge="1" parent="WIyWlLk6GJQsqaUBKTNV-1" target="tc51eVzZ6Psj-sciTMsl-19">
          <mxGeometry width="50" height="50" relative="1" as="geometry">
            <mxPoint x="442" y="548" as="sourcePoint" />
            <mxPoint x="492" y="498" as="targetPoint" />
          </mxGeometry>
        </mxCell>
        <mxCell id="tc51eVzZ6Psj-sciTMsl-30" value="&lt;b&gt;Mint&lt;/b&gt;&lt;br&gt;299 USDi" style="text;html=1;align=center;verticalAlign=middle;resizable=0;points=[];autosize=1;strokeColor=none;fillColor=none;" vertex="1" parent="WIyWlLk6GJQsqaUBKTNV-1">
          <mxGeometry x="190" y="504" width="69" height="41" as="geometry" />
        </mxCell>
        <mxCell id="tc51eVzZ6Psj-sciTMsl-31" value="" style="html=1;verticalLabelPosition=bottom;align=center;labelBackgroundColor=#ffffff;verticalAlign=top;strokeWidth=2;strokeColor=#0080F0;shadow=0;dashed=0;shape=mxgraph.ios7.icons.user;" vertex="1" parent="WIyWlLk6GJQsqaUBKTNV-1">
          <mxGeometry x="100" y="808" width="47" height="52" as="geometry" />
        </mxCell>
        <mxCell id="tc51eVzZ6Psj-sciTMsl-32" value="&lt;b&gt;User&lt;/b&gt;" style="text;html=1;align=center;verticalAlign=middle;resizable=0;points=[];autosize=1;strokeColor=none;fillColor=none;" vertex="1" parent="WIyWlLk6GJQsqaUBKTNV-1">
          <mxGeometry x="101" y="782" width="45" height="26" as="geometry" />
        </mxCell>
        <mxCell id="tc51eVzZ6Psj-sciTMsl-33" value="" style="shape=image;html=1;verticalAlign=top;verticalLabelPosition=bottom;labelBackgroundColor=#ffffff;imageAspect=0;aspect=fixed;image=https://cdn3.iconfinder.com/data/icons/finance-152/64/1-128.png" vertex="1" parent="WIyWlLk6GJQsqaUBKTNV-1">
          <mxGeometry x="336.5" y="788.5" width="91" height="91" as="geometry" />
        </mxCell>
        <mxCell id="tc51eVzZ6Psj-sciTMsl-34" value="&lt;b&gt;BoC&#39;s vault&lt;/b&gt;" style="text;html=1;align=center;verticalAlign=middle;resizable=0;points=[];autosize=1;strokeColor=none;fillColor=none;" vertex="1" parent="WIyWlLk6GJQsqaUBKTNV-1">
          <mxGeometry x="340" y="756" width="84" height="26" as="geometry" />
        </mxCell>
        <mxCell id="tc51eVzZ6Psj-sciTMsl-35" value="&lt;b&gt;USDi&lt;/b&gt;" style="rounded=1;whiteSpace=wrap;html=1;fontSize=12;glass=0;strokeWidth=1;shadow=0;fillColor=#f5f5f5;fontColor=#333333;strokeColor=#666666;" vertex="1" parent="WIyWlLk6GJQsqaUBKTNV-1">
          <mxGeometry x="557.5" y="814" width="120" height="40" as="geometry" />
        </mxCell>
        <mxCell id="tc51eVzZ6Psj-sciTMsl-36" value="" style="endArrow=classic;html=1;rounded=0;entryX=0;entryY=0.5;entryDx=0;entryDy=0;" edge="1" parent="WIyWlLk6GJQsqaUBKTNV-1" target="tc51eVzZ6Psj-sciTMsl-33">
          <mxGeometry width="50" height="50" relative="1" as="geometry">
            <mxPoint x="149" y="835" as="sourcePoint" />
            <mxPoint x="199" y="785" as="targetPoint" />
          </mxGeometry>
        </mxCell>
        <mxCell id="tc51eVzZ6Psj-sciTMsl-37" value="" style="endArrow=classic;html=1;rounded=0;entryX=0;entryY=0.5;entryDx=0;entryDy=0;exitX=1;exitY=0.5;exitDx=0;exitDy=0;" edge="1" parent="WIyWlLk6GJQsqaUBKTNV-1" source="tc51eVzZ6Psj-sciTMsl-33" target="tc51eVzZ6Psj-sciTMsl-35">
          <mxGeometry width="50" height="50" relative="1" as="geometry">
            <mxPoint x="427.5" y="836" as="sourcePoint" />
            <mxPoint x="477.5" y="786" as="targetPoint" />
          </mxGeometry>
        </mxCell>
        <mxCell id="tc51eVzZ6Psj-sciTMsl-38" value="Redeem&lt;br&gt;299 USDi" style="text;html=1;align=center;verticalAlign=middle;resizable=0;points=[];autosize=1;strokeColor=none;fillColor=none;" vertex="1" parent="WIyWlLk6GJQsqaUBKTNV-1">
          <mxGeometry x="190" y="794" width="69" height="41" as="geometry" />
        </mxCell>
        <mxCell id="tc51eVzZ6Psj-sciTMsl-39" value="&lt;b&gt;Burn&lt;/b&gt;" style="text;html=1;align=center;verticalAlign=middle;resizable=0;points=[];autosize=1;strokeColor=none;fillColor=none;" vertex="1" parent="WIyWlLk6GJQsqaUBKTNV-1">
          <mxGeometry x="464" y="808" width="46" height="26" as="geometry" />
        </mxCell>
        <mxCell id="tc51eVzZ6Psj-sciTMsl-40" value="" style="endArrow=classic;html=1;rounded=0;entryX=0.761;entryY=0.972;entryDx=0;entryDy=0;entryPerimeter=0;edgeStyle=elbowEdgeStyle;elbow=vertical;" edge="1" parent="WIyWlLk6GJQsqaUBKTNV-1" target="tc51eVzZ6Psj-sciTMsl-31">
          <mxGeometry width="50" height="50" relative="1" as="geometry">
            <mxPoint x="618" y="854" as="sourcePoint" />
            <mxPoint x="668" y="804" as="targetPoint" />
            <Array as="points">
              <mxPoint x="541" y="985" />
              <mxPoint x="286" y="953" />
            </Array>
          </mxGeometry>
        </mxCell>
        <mxCell id="tc51eVzZ6Psj-sciTMsl-41" value="99.0099 USDT = 100 USDi (Chainlink: 1.01 USD)&lt;br&gt;100 DAI = 99 USDi (Chainlink: 0.99 USD)&lt;br&gt;100 USDC = 100 USDi (Chainlink: 1.00 USD)" style="text;html=1;align=center;verticalAlign=middle;resizable=0;points=[];autosize=1;strokeColor=none;fillColor=none;" vertex="1" parent="WIyWlLk6GJQsqaUBKTNV-1">
          <mxGeometry x="238" y="926" width="282" height="55" as="geometry" />
        </mxCell>
      </root>
    </mxGraphModel>
  </diagram>
</mxfile>
